<svg width="42" height="50" viewBox="0 0 42 50" fill="none" xmlns="http://www.w3.org/2000/svg">
<path d="M8.33333 37.5C8.33333 38.6458 9.27083 39.5833 10.4167 39.5833H12.5V46.875C12.5 48.6042 13.8958 50 15.625 50C17.3542 50 18.75 48.6042 18.75 46.875V39.5833H22.9167V46.875C22.9167 48.6042 24.3125 50 26.0417 50C27.7708 50 29.1667 48.6042 29.1667 46.875V39.5833H31.25C32.3958 39.5833 33.3333 38.6458 33.3333 37.5V16.6667H8.33333V37.5ZM3.125 16.6667C1.39583 16.6667 0 18.0625 0 19.7917V34.375C0 36.1042 1.39583 37.5 3.125 37.5C4.85417 37.5 6.25 36.1042 6.25 34.375V19.7917C6.25 18.0625 4.85417 16.6667 3.125 16.6667ZM38.5417 16.6667C36.8125 16.6667 35.4167 18.0625 35.4167 19.7917V34.375C35.4167 36.1042 36.8125 37.5 38.5417 37.5C40.2708 37.5 41.6667 36.1042 41.6667 34.375V19.7917C41.6667 18.0625 40.2708 16.6667 38.5417 16.6667ZM28.1875 4.5L30.8958 1.79167C31.3125 1.375 31.3125 0.729167 30.8958 0.3125C30.4792 -0.104167 29.8333 -0.104167 29.4167 0.3125L26.3333 3.39583C24.6875 2.5625 22.8125 2.08333 20.8333 2.08333C18.8333 2.08333 16.9583 2.5625 15.2917 3.39583L12.1875 0.3125C11.7708 -0.104167 11.125 -0.104167 10.7083 0.3125C10.2917 0.729167 10.2917 1.375 10.7083 1.79167L13.4375 4.52083C10.3542 6.79167 8.33333 10.4375 8.33333 14.5833H33.3333C33.3333 10.4375 31.3125 6.77083 28.1875 4.5ZM16.6667 10.4167H14.5833V8.33333H16.6667V10.4167ZM27.0833 10.4167H25V8.33333H27.0833V10.4167Z" fill="#3B3B47"/>
</svg>
