<svg width="50" height="50" viewBox="0 0 50 50" fill="none" xmlns="http://www.w3.org/2000/svg">
<path d="M25 0C11.2 0 0 11.2 0 25C0 38.8 11.2 50 25 50H37.5V45H25C14.15 45 5 35.85 5 25C5 14.15 14.15 5 25 5C35.85 5 45 14.15 45 25V28.575C45 30.55 43.225 32.5 41.25 32.5C39.275 32.5 37.5 30.55 37.5 28.575V25C37.5 18.1 31.9 12.5 25 12.5C18.1 12.5 12.5 18.1 12.5 25C12.5 31.9 18.1 37.5 25 37.5C28.45 37.5 31.6 36.1 33.85 33.825C35.475 36.05 38.275 37.5 41.25 37.5C46.175 37.5 50 33.5 50 28.575V25C50 11.2 38.8 0 25 0ZM25 32.5C20.85 32.5 17.5 29.15 17.5 25C17.5 20.85 20.85 17.5 25 17.5C29.15 17.5 32.5 20.85 32.5 25C32.5 29.15 29.15 32.5 25 32.5Z" fill="#525088"/>
</svg>
