<svg width="43" height="50" viewBox="0 0 43 50" fill="none" xmlns="http://www.w3.org/2000/svg">
<path d="M35.1188 26.4233C35.0948 22.3249 36.9517 19.236 40.7015 16.9585C38.6043 13.9538 35.4313 12.3012 31.2488 11.9827C27.2886 11.6702 22.9558 14.2903 21.3694 14.2903C19.6927 14.2903 15.8588 12.0909 12.842 12.0909C6.61633 12.187 0 17.0546 0 26.9581C0 29.8847 0.534835 32.9074 1.6045 36.0202C3.03474 40.1186 8.19079 50.1603 13.5692 49.9981C16.3816 49.932 18.3707 48.0029 22.0304 48.0029C25.5819 48.0029 27.4208 49.9981 30.5577 49.9981C35.9842 49.9199 40.6475 40.7917 42.0056 36.6813C34.7282 33.2499 35.1188 26.6336 35.1188 26.4233ZM28.803 8.09464C31.8497 4.47699 31.5733 1.18385 31.4832 0C28.7909 0.156244 25.6781 1.83286 23.9053 3.89408C21.9523 6.10553 20.8045 8.8398 21.0509 11.9226C23.9594 12.145 26.6156 10.6486 28.803 8.09464Z" fill="#3B3B47"/>
</svg>
