<svg width="42" height="42" viewBox="0 0 42 42" fill="none" xmlns="http://www.w3.org/2000/svg">
<path d="M30.0832 25.1667C30.2498 23.7917 30.3748 22.4167 30.3748 21.0001C30.3748 19.5834 30.2498 18.2084 30.0832 16.8334H37.1248C37.4582 18.1667 37.6665 19.5626 37.6665 21.0001C37.6665 22.4376 37.4582 23.8334 37.1248 25.1667H30.0832ZM26.3957 36.7501C27.6457 34.4376 28.604 31.9376 29.2707 29.3334H35.4165C33.3981 32.809 30.1959 35.4417 26.3957 36.7501V36.7501ZM25.8748 25.1667H16.1248C15.9165 23.7917 15.7915 22.4167 15.7915 21.0001C15.7915 19.5834 15.9165 18.1876 16.1248 16.8334H25.8748C26.0623 18.1876 26.2082 19.5834 26.2082 21.0001C26.2082 22.4167 26.0623 23.7917 25.8748 25.1667ZM20.9998 37.5834C19.2707 35.0834 17.8748 32.3126 17.0207 29.3334H24.979C24.1248 32.3126 22.729 35.0834 20.9998 37.5834ZM12.6665 12.6667H6.58317C8.58079 9.18178 11.7807 6.54484 15.5832 5.25008C14.3332 7.56258 13.3957 10.0626 12.6665 12.6667ZM6.58317 29.3334H12.6665C13.3957 31.9376 14.3332 34.4376 15.5832 36.7501C11.7886 35.4411 8.59327 32.8078 6.58317 29.3334V29.3334ZM4.87484 25.1667C4.5415 23.8334 4.33317 22.4376 4.33317 21.0001C4.33317 19.5626 4.5415 18.1667 4.87484 16.8334H11.9165C11.7498 18.2084 11.6248 19.5834 11.6248 21.0001C11.6248 22.4167 11.7498 23.7917 11.9165 25.1667H4.87484ZM20.9998 4.39592C22.729 6.89592 24.1248 9.68758 24.979 12.6667H17.0207C17.8748 9.68758 19.2707 6.89592 20.9998 4.39592V4.39592ZM35.4165 12.6667H29.2707C28.6186 10.0865 27.6531 7.5957 26.3957 5.25008C30.229 6.56258 33.4165 9.20842 35.4165 12.6667ZM20.9998 0.166748C9.479 0.166748 0.166504 9.54175 0.166504 21.0001C0.166504 26.5254 2.36144 31.8245 6.26845 35.7315C8.203 37.666 10.4996 39.2006 13.0273 40.2476C15.5549 41.2945 18.264 41.8334 20.9998 41.8334C26.5252 41.8334 31.8242 39.6385 35.7312 35.7315C39.6382 31.8245 41.8332 26.5254 41.8332 21.0001C41.8332 18.2642 41.2943 15.5551 40.2473 13.0275C39.2004 10.4999 37.6658 8.20324 35.7312 6.26869C33.7967 4.33414 31.5 2.79956 28.9724 1.75259C26.4448 0.705618 23.7357 0.166748 20.9998 0.166748V0.166748Z" fill="#3B3B47"/>
</svg>
