<svg width="40" height="50" viewBox="0 0 40 50" fill="none" xmlns="http://www.w3.org/2000/svg">
<path d="M20.0001 30.0002C25.5151 30.0002 30.0002 25.5152 30.0002 20.0002C30.0002 14.4851 25.5151 10.0001 20.0001 10.0001C14.485 10.0001 10 14.4851 10 20.0002C10 25.5152 14.485 30.0002 20.0001 30.0002ZM20.0001 15.0001C22.7576 15.0001 25.0001 17.2426 25.0001 20.0002C25.0001 22.7577 22.7576 25.0002 20.0001 25.0002C17.2426 25.0002 15 22.7577 15 20.0002C15 17.2426 17.2426 15.0001 20.0001 15.0001Z" fill="#696A6C"/>
<path d="M18.5504 49.5354C18.9735 49.8376 19.4804 50 20.0004 50C20.5203 50 21.0273 49.8376 21.4504 49.5354C22.2104 48.9979 40.073 36.1003 40.0005 20.0002C40.0005 8.97257 31.028 0 20.0004 0C8.97279 0 0.000220096 8.97257 0.000220096 19.9877C-0.0722805 36.1003 17.7904 48.9979 18.5504 49.5354ZM20.0004 5.00004C28.2729 5.00004 35.0005 11.7276 35.0005 20.0127C35.053 31.1077 24.0304 41.0703 20.0004 44.3379C15.9728 41.0678 4.94776 31.1027 5.00026 20.0002C5.00026 11.7276 11.7278 5.00004 20.0004 5.00004Z" fill="#696A6C"/>
</svg>
