<svg width="50" height="50" viewBox="0 0 50 50" fill="none" xmlns="http://www.w3.org/2000/svg">
<path d="M42.503 7.26884C40.2107 4.95533 37.4809 3.12117 34.4727 1.87324C31.4645 0.625312 28.238 -0.0114341 24.9812 0.000108381C11.3343 0.000108381 0.212499 11.1188 0.199999 24.7688C0.199999 29.1406 1.34375 33.3938 3.50311 37.1594L0 50L13.1375 46.5562C16.7718 48.5341 20.8435 49.5708 24.9812 49.5718H24.9937C38.6436 49.5718 49.7623 38.4531 49.7748 24.7907C49.778 21.5346 49.1368 18.31 47.8882 15.3028C46.6396 12.2956 44.8083 9.56518 42.4999 7.26884H42.503ZM24.9812 45.3781C21.2906 45.3793 17.6678 44.3862 14.4937 42.5031L13.7437 42.0531L5.94998 44.0968L8.03123 36.4937L7.54373 35.7094C5.48063 32.4291 4.38951 28.6314 4.39686 24.7563C4.39686 13.4251 13.6375 4.18135 24.9937 4.18135C27.6991 4.17649 30.3787 4.7072 32.8781 5.74288C35.3774 6.77855 37.6471 8.29871 39.5561 10.2157C41.4718 12.1252 42.9906 14.3951 44.0246 16.8945C45.0587 19.3939 45.5877 22.0733 45.5811 24.7782C45.5686 36.15 36.328 45.3781 24.9812 45.3781ZM36.278 29.9594C35.6624 29.65 32.6218 28.1531 32.0499 27.9406C31.4812 27.7375 31.0655 27.6313 30.6593 28.25C30.2437 28.8656 29.0562 30.2688 28.6999 30.6719C28.3437 31.0875 27.9749 31.1344 27.3562 30.8281C26.7405 30.5156 24.7437 29.8656 22.3812 27.75C20.5374 26.1094 19.3031 24.0782 18.9343 23.4625C18.5781 22.8438 18.8999 22.5125 19.2093 22.2032C19.4812 21.9282 19.8249 21.4782 20.1343 21.1219C20.4468 20.7657 20.5499 20.5032 20.7531 20.0907C20.9562 19.6719 20.8593 19.3157 20.7062 19.0063C20.5499 18.6969 19.3156 15.6438 18.7937 14.4126C18.2937 13.1969 17.7843 13.3657 17.4031 13.3501C17.0468 13.3282 16.6312 13.3282 16.2156 13.3282C15.9017 13.336 15.5928 13.4086 15.3084 13.5414C15.0239 13.6742 14.7699 13.8644 14.5625 14.1001C13.9937 14.7188 12.4031 16.2157 12.4031 19.2688C12.4031 22.3219 14.6218 25.2563 14.9343 25.6719C15.2406 26.0875 19.2906 32.3344 25.5062 35.0219C26.9749 35.6625 28.1312 36.0406 29.0343 36.3281C30.5187 36.8031 31.8593 36.7312 32.928 36.5781C34.1155 36.3969 36.5874 35.0781 37.1093 33.6313C37.6218 32.1813 37.6218 30.9438 37.4655 30.6844C37.3124 30.4219 36.8968 30.2688 36.278 29.9594Z" fill="#525088"/>
</svg>
